<?xml version="1.0" encoding="utf-8"?>
<!-- Generator: Adobe Illustrator 16.0.0, SVG Export Plug-In . SVG Version: 6.00 Build 0)  -->
<!DOCTYPE svg PUBLIC "-//W3C//DTD SVG 1.1//EN" "http://www.w3.org/Graphics/SVG/1.1/DTD/svg11.dtd">
<svg version="1.1" id="appliancesSVG" xmlns="http://www.w3.org/2000/svg" xmlns:xlink="http://www.w3.org/1999/xlink" x="0px" y="0px"
	 width="465.244px" height="549.833px" viewBox="-293.333 -368.5 465.244 549.833"
	 enable-background="new -293.333 -368.5 465.244 549.833" xml:space="preserve">
<g>
	<path fill="#3366CC" id="appliancesSVG" d="M108.468-368.5h-338.359c-35.046,0-63.442,28.417-63.442,63.442v422.948
		c0,35.025,28.396,63.442,63.442,63.442h338.359c35.046,0,63.442-28.417,63.442-63.442v-422.948
		C171.91-340.083,143.514-368.5,108.468-368.5z M-7.843-328.766c18.917,0,34.282,15.364,34.282,34.282
		c0,18.917-15.365,34.282-34.282,34.282c-18.958,0-34.282-15.365-34.282-34.282C-42.125-313.401-26.76-328.766-7.843-328.766z
		 M-60.712,76.835c-82.411,0-149.281-66.829-149.281-149.271c0-82.442,66.871-149.271,149.281-149.271
		c82.4,0,149.271,66.829,149.271,149.271C88.56,10.006,21.688,76.835-60.712,76.835z M97.894-260.202
		c-18.958,0-34.281-15.365-34.281-34.282c0-18.917,15.364-34.282,34.281-34.282s34.282,15.364,34.282,34.282
		C132.176-275.567,116.811-260.202,97.894-260.202z"/>
	<path fill="#3366CC" id="appliancesSVG" d="M-60.712-195.355c-67.882,0-122.93,55.058-122.93,122.961c0,67.861,55.047,122.878,122.93,122.878
		c67.862,0,122.92-55.058,122.92-122.919C62.208-140.298,7.15-195.355-60.712-195.355z M-60.712-174.208
		c52.951,0,96.134,40.849,100.863,92.603C2.441-101.638-15.773-73.18-60.712-73.18c-45.32,0-58.434-30.937-100.853-8.343
		C-156.887-133.276-113.704-174.208-60.712-174.208z"/>
</g>
</svg>
