<?xml version="1.0" encoding="utf-8"?>
<!-- Generator: Adobe Illustrator 16.0.0, SVG Export Plug-In . SVG Version: 6.00 Build 0)  -->
<!DOCTYPE svg PUBLIC "-//W3C//DTD SVG 1.1//EN" "http://www.w3.org/Graphics/SVG/1.1/DTD/svg11.dtd">
<svg version="1.1" id="autoSVG" xmlns="http://www.w3.org/2000/svg" xmlns:xlink="http://www.w3.org/1999/xlink" x="0px" y="0px"
	 width="655.335px" height="524.273px" viewBox="-281 -302.167 655.335 524.273"
	 enable-background="new -281 -302.167 655.335 524.273" xml:space="preserve">
<path fill="#993300" id="autoSVG" d="M373.081-61.896l-7.461-21.832c-4.127-12.081-17.271-21.839-29.333-21.839h-27.099
	c-20.344-57.076-45.221-125.967-52.455-142.108c-11.245-25.096-47.188-36.43-66.942-41.943c0,0-33.017-12.548-143.123-12.548
	c-110.104,0-143.123,12.548-143.123,12.548c-23.138,7.735-55.311,18.678-68.095,43.047c-5.997,11.479-31.26,82.323-51.824,141.004
	h-26.549c-12.055,0-25.192,9.771-29.327,21.839l-7.498,21.832c-4.131,12.082,2.293,21.84,14.358,21.84h26.204
	c-3.384,9.818-5.441,15.771-5.441,15.771c-2.095,3.552-3.604,19.898-3.604,24.287v123.78v8.633v66.559
	c0,12.762,10.364,23.135,23.128,23.135h84.805c12.778,0,23.128-10.373,23.128-23.135V156.57h327.667v42.402
	c0,12.762,10.361,23.135,23.128,23.135h84.799c12.774,0,23.135-10.373,23.135-23.135v-66.559v-8.633V-0.013
	c0-4.389-1.508-20.735-3.613-24.273c0,0-2.098-5.952-5.554-15.771h26.33C370.791-40.057,377.216-49.828,373.081-61.896z
	 M-117.653,59.984h-35.052c-31.401,0-62.757-4.223-62.757-24.142V11.698c0-23.3,13.539-24.143,28.113-24.143
	c14.255,0,42.475,12.054,61.046,20.371c20.248,9.052,42.914,16.621,42.914,31.7C-83.382,53.566-91.22,59.984-117.653,59.984z
	 M-166.501-96.763c17.238-71.641,35.998-112.068,40.14-123.369c3.309-8.194,6.524-33.516,173.043-33.516
	s170.434,28.888,170.838,29.251c5.136,15.339,25.494,61.575,41.779,127.592c0,0-70.324,23.958-212.659,23.958
	C-95.697-72.847-166.501-96.763-166.501-96.763z M176.701,39.605c0-15.112,22.668-22.64,42.91-31.692
	c18.582-8.29,46.791-20.378,61.039-20.378c14.578,0,28.113,0.85,28.113,24.149v24.144h0.041c0,19.953-31.363,24.142-62.754,24.142
	h-35.093C184.559,59.984,176.701,53.566,176.701,39.605z"/>
</svg>
