<?xml version="1.0" encoding="utf-8"?>
<!-- Generator: Adobe Illustrator 16.0.0, SVG Export Plug-In . SVG Version: 6.00 Build 0)  -->
<!DOCTYPE svg PUBLIC "-//W3C//DTD SVG 1.1//EN" "http://www.w3.org/Graphics/SVG/1.1/DTD/svg11.dtd">
<svg version="1.1" id="booksSVG" xmlns="http://www.w3.org/2000/svg" xmlns:xlink="http://www.w3.org/1999/xlink" x="0px" y="0px"
	 width="421.682px" height="582.738px" viewBox="-203 -384.132 421.682 582.738"
	 enable-background="new -203 -384.132 421.682 582.738" xml:space="preserve">
<path fill="#006699" id="booksSVG" d="M208.099-239.059L-62.943-378.769c-37.12-19.56-110.322,18.23-131.353,51.48
	c-9.389,14.854-8.692,25.596-8.692,31.661l3.344,315.493c0.224,6.694,8.663,15.736,15.883,20.172
	c15.037,9.218,242.749,151.386,249.202,155.41c3.472,2.154,7.565,3.16,11.619,3.16c3.441,0,6.9-0.766,10.036-2.318
	c6.841-3.359,11.101-9.889,11.101-16.984v-331.375c0-6.895-4.024-13.271-10.577-16.713l-246.355-137.527
	c2.789-5.418,13.751-16.872,33.896-27.419c21.222-11.119,37.12-6.918,40.771-5.506c0,0,236.428,126.526,243.658,130.291
	c7.2,3.759,7.348,4.324,7.348,10.76c0,6.424,0,314.445,0,314.445c0,15.689,15.936,22.107,27.613,22.107s24.131-11.441,24.131-22.107
	v-338.6C218.676-229.235,214.629-235.618,208.099-239.059z"/>
</svg>
