<?xml version="1.0" encoding="utf-8"?>
<!-- Generator: Adobe Illustrator 16.0.0, SVG Export Plug-In . SVG Version: 6.00 Build 0)  -->
<!DOCTYPE svg PUBLIC "-//W3C//DTD SVG 1.1//EN" "http://www.w3.org/Graphics/SVG/1.1/DTD/svg11.dtd">
<svg version="1.1" id="icon" xmlns="http://www.w3.org/2000/svg" xmlns:xlink="http://www.w3.org/1999/xlink" x="0px" y="0px"
	 width="474.453px" height="474.467px" viewBox="-155.234 -492.526 474.453 474.467"
	 enable-background="new -155.234 -492.526 474.453 474.467" xml:space="preserve">
<g>
	<path d="M200.578-136.676c-32.749,0-59.309,26.56-59.309,59.308c0,32.748,26.56,59.309,59.309,59.309
		c32.762,0,59.321-26.561,59.321-59.309C259.874-110.142,233.34-136.676,200.578-136.676z"/>
	<path d="M52.313-136.676c-32.755,0-59.302,26.56-59.302,59.308c0,32.748,26.56,59.309,59.302,59.309
		c32.749,0,59.309-26.561,59.309-59.309C111.609-110.142,85.062-136.676,52.313-136.676z"/>
	<path d="M313.667-391.243c-5.655-7.765-14.576-12.327-24.133-12.327H-15.28l-22.9-68.7c-4.022-12.098-15.358-20.256-28.123-20.256
		h-59.276c-16.394,0-29.654,13.254-29.654,29.66c0,16.419,13.261,29.648,29.654,29.648h37.908l82.177,246.599
		c4.06,12.111,15.383,20.282,28.161,20.282h207.572c12.836,0,24.095-8.171,28.148-20.282l59.309-177.912
		C320.707-373.566,319.195-383.517,313.667-391.243z"/>
</g>
</svg>
