<?xml version="1.0" encoding="utf-8"?>
<!-- Generator: Adobe Illustrator 16.0.0, SVG Export Plug-In . SVG Version: 6.00 Build 0)  -->
<!DOCTYPE svg PUBLIC "-//W3C//DTD SVG 1.1//EN" "http://www.w3.org/Graphics/SVG/1.1/DTD/svg11.dtd">
<svg version="1.1" id="foodSVG" xmlns="http://www.w3.org/2000/svg" xmlns:xlink="http://www.w3.org/1999/xlink" x="0px" y="0px"
	 width="509.443px" height="645.006px" viewBox="-267.5 -425.5 509.443 645.006"
	 enable-background="new -267.5 -425.5 509.443 645.006" xml:space="preserve">
<g>
	<path fill="#006633" id="foodSVG" d="M1.658-238.598c11.338-18.934,29.277-46.044,51.953-72.045h0.024c19.199-22.071,56.79-50.403,56.79-50.403
		c5.644-4.271,5.039-10.216-1.386-13.215L63.6-395.487c-6.424-3.011-15.154-0.819-19.413,4.85c0,0-33.609,48.198-73.153,150.817
		C-151.256-295.123-267.5-217.649-267.5-82.931c0,140.739,108.269,354.493,254.683,289.956
		c154.206,66.729,254.76-149.217,254.76-289.956C241.943-218.807,137.459-298.474,1.658-238.598z"/>
	<path fill="#006633" id="foodSVG" d="M-25.729-284.176c7.067-0.592,13.309-6.84,13.876-13.908c0,0,4.541-55.025-33.805-93.41
		c-38.467-38.41-93.398-33.837-93.398-33.837c-7.068,0.604-13.31,6.853-13.895,13.908c0,0-4.617,55.063,33.786,93.46
		C-80.773-279.603-25.729-284.176-25.729-284.176z"/>
</g>
</svg>
