<?xml version="1.0" encoding="utf-8"?>
<!-- Generator: Adobe Illustrator 16.0.0, SVG Export Plug-In . SVG Version: 6.00 Build 0)  -->
<!DOCTYPE svg PUBLIC "-//W3C//DTD SVG 1.1//EN" "http://www.w3.org/Graphics/SVG/1.1/DTD/svg11.dtd">
<svg version="1.1" id="gamingSVG" xmlns="http://www.w3.org/2000/svg" xmlns:xlink="http://www.w3.org/1999/xlink" x="0px" y="0px"
	 width="598.235px" height="423.203px" viewBox="0 -536.919 598.235 423.203" enable-background="new 0 -536.919 598.235 423.203"
	 xml:space="preserve">
<path fill="#330099" id="gamingSVG" d="M417.912-536.213c-86.854,42.901-144.541,39.477-234.353-0.706c-157.315,0-247.491,423.203-129.854,423.203
	c99.306,0,112.644-123.762,248.64-123.762c109.95,0,174.499,122.201,247.854,122.201C667.831-115.31,548.36-536.213,417.912-536.213
	z M184.58-325.35c-43.56,0-78.843-35.324-78.843-78.8c0-43.459,35.283-78.783,78.843-78.783c43.525,0,78.805,35.324,78.805,78.783
	C263.385-360.673,228.106-325.35,184.58-325.35z M381.975-396.011c-12.91-4.016-20.04-17.706-15.966-30.592
	c4.009-12.818,17.706-19.98,30.551-15.949c12.876,3.993,20.07,17.648,15.997,30.511C408.55-399.074,394.851-392.003,381.975-396.011
	z M505.686-375.438c-4.073,12.869-17.74,19.997-30.582,15.99c-12.845-3.999-20.039-17.689-16.03-30.641
	c4.104-12.867,17.805-19.963,30.582-15.998C502.566-402.015,509.726-388.356,505.686-375.438z M474.283-432.606
	c-4.108,12.895-17.774,19.999-30.619,16.03c-12.842-4.006-20.036-17.712-16.03-30.631c4.073-12.886,17.808-19.98,30.615-16.032
	C471.128-459.148,478.289-445.508,474.283-432.606z M441.496-356.854c-4.138,12.903-17.771,20.029-30.646,16.013
	c-12.815-4.006-20.006-17.68-16-30.615c4.073-12.844,17.771-19.98,30.585-16.031C438.312-383.396,445.472-369.772,441.496-356.854z
	 M224.392-402.957c0,22.451-18.13,40.634-40.568,40.634c-22.468,0-40.602-18.183-40.602-40.634
	c0-22.389,18.134-40.588,40.602-40.588C206.262-443.545,224.392-425.346,224.392-402.957z"/>
</svg>
