<?xml version="1.0" encoding="utf-8"?>
<!-- Generator: Adobe Illustrator 16.0.0, SVG Export Plug-In . SVG Version: 6.00 Build 0)  -->
<!DOCTYPE svg PUBLIC "-//W3C//DTD SVG 1.1//EN" "http://www.w3.org/Graphics/SVG/1.1/DTD/svg11.dtd">
<svg version="1.1" id="healthSVG" xmlns="http://www.w3.org/2000/svg" xmlns:xlink="http://www.w3.org/1999/xlink" x="0px" y="0px"
	 width="435.12px" height="606.403px" viewBox="-247 -280.5 435.12 606.403" enable-background="new -247 -280.5 435.12 606.403"
	 xml:space="preserve">
<path fill="#FF6699" id="healthSVG" d="M122.33-280.5c0,0-49.895,48.403-103.852,67.925C-381.108-68.047-212.586,213.607-207.088,214.534
	c0,0,22.408-39.021,52.675-61.275C37.657,12.059,76.696-150.469,76.696-150.469S33.595,45.104-137.28,166.794
	c-37.739,26.87-63.294,93.008-74.112,159.109c0,0,26.753-10.796,38.256-13.733c4.487-29.271,13.866-57.303,29.723-82.338
	C95.406,258.261,173.622,65.83,183.841-1.277C207.948-159.755,122.33-280.5,122.33-280.5z"/>
</svg>
