<?xml version="1.0" encoding="utf-8"?>
<!-- Generator: Adobe Illustrator 16.0.0, SVG Export Plug-In . SVG Version: 6.00 Build 0)  -->
<!DOCTYPE svg PUBLIC "-//W3C//DTD SVG 1.1//EN" "http://www.w3.org/Graphics/SVG/1.1/DTD/svg11.dtd">
<svg version="1.1" id="homeSVG" xmlns="http://www.w3.org/2000/svg" xmlns:xlink="http://www.w3.org/1999/xlink" x="0px" y="0px"
	 width="587.021px" height="520.084px" viewBox="-249 -394.53 587.021 520.084"
	 enable-background="new -249 -394.53 587.021 520.084" xml:space="preserve">
<path fill="#FF9900" id="homeSVG" d="M-169.187,112.443c0,0-0.508,13.111,12.306,13.111c15.954,0,147.959-0.168,147.959-0.168L-8.689,4.158
	c0,0-2.1-19.985,17.312-19.985h61.399c22.934,0,21.512,19.985,21.512,19.985L91.28,125.003c0,0,125.174,0,144.841,0
	c16.271,0,15.529-16.336,15.529-16.336v-223.531L47.533-296.428l-216.72,181.565V112.443z"/>
<path fill="#FF9900" d="M-249-131.751c0,0,18.416,33.903,58.535,0L49.337-334.617l224.824,201.593c46.462,33.521,63.859,0,63.859,0
	L49.337-394.53L-249-131.751z"/>
<polygon fill="#FF9900" points="268.709,-335.126 210.873,-335.126 211.128,-264.987 268.709,-216.105 "/>
</svg>
