<?xml version="1.0" encoding="utf-8"?>
<!-- Generator: Adobe Illustrator 16.0.0, SVG Export Plug-In . SVG Version: 6.00 Build 0)  -->
<!DOCTYPE svg PUBLIC "-//W3C//DTD SVG 1.1//EN" "http://www.w3.org/Graphics/SVG/1.1/DTD/svg11.dtd">
<svg version="1.1" id="icon" xmlns="http://www.w3.org/2000/svg" xmlns:xlink="http://www.w3.org/1999/xlink" x="0px" y="0px"
	 width="22.531px" height="22.53px" viewBox="0 -11.137 22.531 22.53" enable-background="new 0 -11.137 22.531 22.53"
	 xml:space="preserve">
<g>
	<path fill="#FFFFFF" d="M16.897,5.761c-1.555,0-2.815,1.262-2.815,2.815c0,1.555,1.261,2.816,2.815,2.816
		c1.556,0,2.817-1.262,2.817-2.816C19.713,7.021,18.452,5.761,16.897,5.761z"/>
	<path fill="#FFFFFF" d="M9.857,5.761c-1.558,0-2.816,1.262-2.816,2.815c0,1.555,1.263,2.816,2.816,2.816
		c1.553,0,2.817-1.262,2.817-2.816C12.674,7.021,11.409,5.761,9.857,5.761z"/>
	<path fill="#FFFFFF" d="M22.268-6.328c-0.269-0.367-0.692-0.583-1.148-0.583H6.645l-1.086-3.264
		c-0.191-0.575-0.73-0.961-1.334-0.961H1.408C0.628-11.137,0-10.51,0-9.729c0,0.778,0.628,1.407,1.408,1.407H3.21L7.112,3.389
		c0.192,0.576,0.729,0.964,1.336,0.964h9.856c0.609,0,1.146-0.388,1.338-0.964l2.815-8.447C22.603-5.49,22.531-5.96,22.268-6.328z"
		/>
</g>
</svg>
