<?xml version="1.0" encoding="utf-8"?>
<!-- Generator: Adobe Illustrator 16.0.0, SVG Export Plug-In . SVG Version: 6.00 Build 0)  -->
<!DOCTYPE svg PUBLIC "-//W3C//DTD SVG 1.1//EN" "http://www.w3.org/Graphics/SVG/1.1/DTD/svg11.dtd">
<svg version="1.1" id="icon" xmlns="http://www.w3.org/2000/svg" xmlns:xlink="http://www.w3.org/1999/xlink" x="0px" y="0px"
	 width="36.459px" height="36.46px" viewBox="0 0 36.459 36.46" enable-background="new 0 0 36.459 36.46" xml:space="preserve">
<g>
	<path fill="#FFFFFF" d="M27.343,27.345c-2.517,0-4.558,2.041-4.558,4.558c0,2.517,2.041,4.558,4.558,4.558
		c2.517,0,4.558-2.041,4.558-4.558C31.9,29.385,29.86,27.345,27.343,27.345z"/>
	<path fill="#FFFFFF" d="M15.949,27.345c-2.517,0-4.557,2.041-4.557,4.558c0,2.517,2.041,4.558,4.557,4.558
		c2.517,0,4.558-2.041,4.558-4.558C20.506,29.385,18.466,27.345,15.949,27.345z"/>
	<path fill="#FFFFFF" d="M36.033,7.782c-0.434-0.596-1.12-0.946-1.854-0.946H10.755l-1.76-5.28C8.686,0.626,7.815,0,6.834,0H2.279
		C1.019,0,0,1.018,0,2.279s1.019,2.278,2.279,2.278h2.913l6.315,18.951c0.312,0.93,1.182,1.558,2.164,1.558h15.951
		c0.986,0,1.852-0.628,2.163-1.558l4.558-13.673C36.574,9.141,36.458,8.377,36.033,7.782z"/>
</g>
</svg>
