<?xml version="1.0" encoding="utf-8"?>
<!-- Generator: Adobe Illustrator 16.0.0, SVG Export Plug-In . SVG Version: 6.00 Build 0)  -->
<!DOCTYPE svg PUBLIC "-//W3C//DTD SVG 1.1//EN" "http://www.w3.org/Graphics/SVG/1.1/DTD/svg11.dtd">
<svg version="1.1" id="Layer_1" xmlns="http://www.w3.org/2000/svg" xmlns:xlink="http://www.w3.org/1999/xlink" x="0px" y="0px"
	 width="79.999px" height="79.999px" viewBox="0 0 79.999 79.999" enable-background="new 0 0 79.999 79.999" xml:space="preserve">
<g>
	<g>
		<path fill-rule="evenodd" clip-rule="evenodd" d="M55.358,32.733c2.677,1.464,5.309,2.822,7.842,4.344
			c0.712,0.428,1.574,1.344,1.567,2.027c-0.007,0.687-0.885,1.575-1.603,2.006c-2.529,1.521-5.153,2.883-7.793,4.333
			c0.866,2.998,1.765,5.869,2.491,8.784c0.188,0.751,0.113,1.921-0.353,2.383c-0.467,0.464-1.636,0.533-2.388,0.343
			c-2.869-0.724-5.693-1.623-8.735-2.516c-1.044,1.889-2.092,3.779-3.134,5.672c-0.477,0.865-0.904,1.76-1.42,2.601
			c-1.055,1.721-2.637,1.726-3.655-0.04c-1.402-2.432-2.711-4.917-4.062-7.379c-0.124-0.226-0.264-0.443-0.5-0.836
			c-2.496,0.731-5.02,1.471-7.545,2.208c-0.449,0.131-0.899,0.258-1.352,0.375c-2.118,0.543-3.229-0.58-2.639-2.717
			c0.678-2.454,1.414-4.893,2.12-7.339c0.141-0.489,0.259-0.985,0.41-1.562c-2.605-1.43-5.191-2.761-7.673-4.264
			c-0.759-0.459-1.717-1.4-1.703-2.102c0.015-0.715,0.998-1.598,1.764-2.072c2.031-1.257,4.146-2.389,6.285-3.456
			c1.067-0.533,1.399-1.06,0.982-2.273c-0.827-2.405-1.475-4.873-2.16-7.326c-0.624-2.234,0.483-3.375,2.729-2.765
			c2.558,0.694,5.108,1.423,7.625,2.249c0.965,0.316,1.387,0.051,1.816-0.779c1.074-2.078,2.218-4.121,3.362-6.162
			c0.547-0.977,0.92-2.216,2.338-2.238c1.426-0.022,1.825,1.19,2.37,2.18c1.155,2.095,2.324,4.183,3.43,6.303
			c0.406,0.778,0.819,1.015,1.715,0.724c2.471-0.8,4.96-1.565,7.484-2.169c0.811-0.194,2.054-0.146,2.547,0.346
			c0.48,0.479,0.495,1.726,0.293,2.532C57.098,27.009,56.205,29.827,55.358,32.733z M45.682,39.689
			c-0.024-3.109-2.589-5.639-5.699-5.621c-3.137,0.018-5.631,2.529-5.635,5.673c-0.004,3.2,2.592,5.771,5.767,5.708
			C43.225,45.389,45.706,42.822,45.682,39.689z"/>
		<path fill-rule="evenodd" clip-rule="evenodd" d="M38.118,39.536c0.125-1.011,0.76-1.685,1.931-1.653
			c1.16,0.031,1.821,0.704,1.857,1.878c0.033,1.086-0.947,1.992-2.016,1.923C38.87,41.619,38.076,40.724,38.118,39.536z"/>
	</g>
</g>
</svg>
