<?xml version="1.0" encoding="utf-8"?>
<!-- Generator: Adobe Illustrator 16.0.0, SVG Export Plug-In . SVG Version: 6.00 Build 0)  -->
<!DOCTYPE svg PUBLIC "-//W3C//DTD SVG 1.1//EN" "http://www.w3.org/Graphics/SVG/1.1/DTD/svg11.dtd">
<svg version="1.1" id="Layer_1" xmlns="http://www.w3.org/2000/svg" xmlns:xlink="http://www.w3.org/1999/xlink" x="0px" y="0px"
	 width="138.101px" height="163.024px" viewBox="0 0 138.101 163.024" enable-background="new 0 0 138.101 163.024"
	 xml:space="preserve">
<g>
	<path fill-rule="evenodd" clip-rule="evenodd" fill="#5A5B5B" d="M138.101,99.92c-2.438,2.583-3.198,6.133-5.184,8.977
		c-0.602,0.269-1.025,0.097-1.271-0.512c-0.165-0.652-0.179-1.308-0.001-1.962c1.651-6.088,1.652-6.088-4.947-6.1
		c-5.147-0.009-10.296,0.076-15.441-0.046c-1.914-0.045-4.078,0.36-5.368-1.75c1.586-2.737,4.279-1.965,6.59-1.879
		c2.933,0.109,5.849,0.572,8.763-0.122c4.337-0.243,8.69,0.046,13.028-0.238c0.655-0.203-0.372-1.038,0.002-0.486
		c0.154,0.228,0.056,0.412-0.287,0.396c-6.619-0.307-13.27,1.527-19.865-0.297c0.266-2.858,2.869-0.662,3.925-1.814
		c6.716,0.277,13.598-1.252,20.057,1.833C138.101,97.253,138.101,98.587,138.101,99.92z"/>
	<path fill-rule="evenodd" clip-rule="evenodd" fill="#E5E6E6" d="M106.077,98.702c9.881,0,19.761,0,30.348,0
		c-1.859,3.962-3.312,7.057-4.764,10.152c-0.004,2.712-2.057,4.691-2.582,7.217c-1.745,2.203-3.032,4.652-3.933,7.309
		c-2.563,3.029-3.769,6.818-5.71,10.199c-1.323,1.897-3.289,2.528-5.447,2.787c-9.078,1.621-18.105,3.529-27.275,4.583
		c-0.53-0.079-1.024-0.27-1.479-0.555c-1.534-1.75-0.512-3.433,0.288-4.991c2.539-4.95,5.155-9.862,7.616-14.851
		c3.248-5.376,5.736-11.147,8.65-16.696C102.842,101.848,103.551,99.504,106.077,98.702z"/>
	<path fill-rule="evenodd" clip-rule="evenodd" fill="#0C1012" d="M110.923,46.936c2.388,3.777,3.141,8.237,5.425,12.167
		c2.267,3.9-1.385,7.828-2.365,11.76c-1.205,0.481-2.133-0.61-3.266-0.556c-2.9-0.067-5.742-0.493-8.529-1.278
		c-8.228-3.046-16.38-6.264-24.207-10.274c-4.954-2.539-5.009-2.458-6.807,2.86c-0.427,1.261-0.789,2.537-1.903,3.407
		c-0.841,0.263-1.38-0.141-1.802-0.808c-0.713-1.622-0.611-3.344,0.096-4.827c2.074-4.35-0.121-6.566-3.57-8.813
		c-8.523-5.554-16.171-12.003-19.644-22.106c-1.255,1.387-2.267,3.195-4.357,3.738c-0.794-0.164-1.394-0.464-0.997-1.447
		c1.041-1.456,1.373-2.602-0.245-4.174c-4.07-3.953-6.086-9.254-8.854-14.138c2.588-1.607,3.801,0.668,5.321,1.565
		c5.591,3.298,7.637,2.939,11.505-2.233c2.363-3.159,3.942-6.679,4.948-11.305c2.863,5.214,4.229,10.016,4.504,15.156
		c0.274,1.135,2.625,0.568,2.002,2.441c-1.817,1.552-4.073,2.292-6.262,2.967c-4.133,1.276-4.471,3.815-3.057,7.329
		c2.183,5.42,5.975,9.612,10.367,13.214c13.989,11.47,30.15,18.732,47.341,23.881c2.378,0.712,5.104,1.441,6.507-1.648
		c1.346-2.96-0.264-5.092-2.46-6.902c-3.374-2.781-7.285-4.663-11.214-6.453c-7.216-3.286-13.238-8.246-19.189-13.321
		c-1.259-1.074-2.473-2.261-2.639-4.083c0.087-0.783,0.49-1.322,1.234-1.597c1.913-0.202,3.065,1.1,4.23,2.25
		c6.716,6.633,14.759,11.263,23.122,15.42c1.45,0.72,3.099,2.115,3.251-1.08C109.673,47.344,110.052,46.801,110.923,46.936z"/>
	<path fill-rule="evenodd" clip-rule="evenodd" fill="#040707" d="M34.973,150.975c-4.323-0.755-8.402,1.149-12.676,1.138
		c-4.451-0.012-8.901,0.265-13.181-1.329c-0.172-1.299,0.845-1.572,1.7-1.987c4.279-1.427,8.187-3.613,12.078-5.856
		c2.492-1.436,4.03-3.395,4.16-6.335c0.292-0.95,0.667-1.823,1.843-1.926c1.491,0.973,2.86,2.428,4.721,0.448
		c3.637-3.871,7.783-7.255,10.926-11.601c1.641-2.27,1.551-3.774-1.346-4.888c-1.896-0.729-5.199-1.559-4.222-3.945
		c1.263-3.087,4.093-0.563,5.999,0.146c7.787,2.896,15.401,6.256,23.349,8.73c1.422,0.443,2.864,0.917,3.872,2.144
		c0.427,1.553-0.458,2.233-1.754,2.641c-3.374-0.255-6.416-1.714-9.55-2.785c-2.542-0.868-4.256-0.422-6.142,1.612
		c-5.315,5.731-10.484,11.709-17.11,15.986c-3.351,2.164-1.426,4.53-1.093,6.938C36.257,150.823,35.885,151.389,34.973,150.975z"/>
	<path fill-rule="evenodd" clip-rule="evenodd" fill="#0A0C0C" d="M34.973,150.975c0.355-0.294,0.711-0.589,1.066-0.883
		c3.289-0.834,5.323,2.046,8.118,2.769c3.669,0.948,7.249,2.269,10.829,3.541c3.37,1.197,5.966,1.752,7.984-2.61
		c1.623-3.504,5.793-3.994,9.522-4.185c0.957-1.894-1.291-3.011-0.917-4.646c1.304-2.653,2.617-1.206,3.936-0.02
		c1.688,2.208,3.369,4.429,5.834,5.876c0.319,0.704,0.334,1.369-0.261,1.95c2.154,7.188,0.843,8.404-7.252,8.857
		c-12.285,0.688-23.504-2.933-34.575-7.499C37.593,153.441,35.925,152.67,34.973,150.975z"/>
	<path fill-rule="evenodd" clip-rule="evenodd" fill="#0D1316" d="M28.938,134.949c-0.333,0.747-0.667,1.494-1.001,2.24
		c-2.326-0.648-2.08-2.768-2.436-4.452c-1.49-7.064-0.682-14.23-0.792-21.354c-0.105-6.753-0.004-6.769-6.387-5.326
		c-3.106,0.701-6.201,1.165-9.317,0.063c-0.374-0.492-0.399-1.002-0.082-1.53c-2.091-7.327-0.55-11.581,5.767-15.716
		c5.718-3.744,12.065-6.226,18.256-9.02c1.188-0.278,1.569,0.52,1.883,1.408c0.361,2.212-0.31,4.292-0.987,6.32
		c-4.604,13.787-4.912,27.962-3.947,42.262C30.016,131.637,30.583,133.496,28.938,134.949z"/>
	<path fill-rule="evenodd" clip-rule="evenodd" fill="#8E908E" d="M98.091,102.448c-0.574-2.199,1.492-3.484,1.855-5.358
		c1.078-1.921,2.595-2.613,4.459-1.208c1.562,1.177,0.821,2.674,0.068,3.994c-3.92,6.88-6.837,14.285-10.999,21.037
		c-2.97,5.894-6.108,11.703-8.948,17.661c-0.634,1.33-0.906,3.117-2.896,2.725c-1.832-0.361-2.098-1.872-1.82-3.506
		c1.041-3.989,3.511-7.35,4.931-11.176c0.618-1.766,1.708-3.284,2.586-4.914c1.338-2.368,2.602-4.772,3.544-7.334
		c0.422-1.113,0.946-2.155,1.964-2.854C95.09,108.784,95.489,104.978,98.091,102.448z"/>
	<path fill-rule="evenodd" clip-rule="evenodd" fill="#181B1C" d="M79.141,31.882c-0.357,0.353-0.715,0.705-1.073,1.057
		c-4.379-0.313-6.16-4.175-8.759-6.732c-3.397-3.343-6.328-7.133-11.229-8.401c-0.635-0.726-1.27-1.452-1.904-2.178
		c12.659,2.065,25.631,3.055,36.733,10.528c7.872,5.299,14.358,11.819,18.016,20.78c-0.276,0.324-0.552,0.647-0.828,0.97
		c-2.51,0.198-2.675-2.096-3.552-3.494c-8.029-12.808-19.456-20.517-34.339-23.118c-0.378-0.066-0.654,0.012-0.831,0.252
		C73.351,25.451,78.678,26.839,79.141,31.882z"/>
	<path fill-rule="evenodd" clip-rule="evenodd" fill="#1B1B1A" d="M67.994,63.764c0.335,0.381,0.67,0.762,1.005,1.143
		c6.416,9.601,15.941,10.586,26.197,9.345c2.128-0.258,4.205-0.772,6.351-0.267c2.942,0.771,5.511,2.287,7.973,4.02
		c0.557,0.539,1.006,1.115,0.597,1.95c-0.693,0.979-1.387,1.958-2.08,2.936c-0.874,0.241-1.423-0.26-1.94-0.836
		c-1.862-3.008-4.719-4.318-8.044-3.74c-9.553,1.662-18.735,1.463-27.431-5.307c-0.742,7.817,1.918,13.604,4.846,19.329
		c0.201,0.484,0.284,0.986,0.266,1.509c-0.074,0.539-0.305,0.994-0.69,1.375c-2.138,0.822-4.154-0.084-6.214-0.426
		c-1.668-0.864-3.456-1.657-2.654-4.113c2.522-0.914,2.494-2.674,1.674-4.804c-2.201-5.72-2.355-11.701-2.024-17.706
		C65.917,66.495,65.442,64.322,67.994,63.764z"/>
	<path fill-rule="evenodd" clip-rule="evenodd" fill="#0E1010" d="M81.084,152.769c-0.001-0.569-0.003-1.14-0.004-1.709
		c2.43-2.234,5.29-1.389,7.958-0.883c3.367,0.638,6.571,0.24,9.752-0.739c2.333-0.717,4.469-2.428,4.888-4.52
		c0.476-2.372-2.771-2.211-4.169-3.452c-1.051-1.239-1.346-2.436,0.677-2.752c2.024-0.315,3.902,0.145,5.006,2.167
		c1.616,1.366,3.233,2.73,4.85,4.095c0.461,2.658,4.248,3.018,4.177,6.042c-8.265,2.333-16.763,2.258-25.231,2.354
		C86.357,153.4,83.72,152.981,81.084,152.769z"/>
	<path fill-rule="evenodd" clip-rule="evenodd" fill="#1B1B1C" d="M34.184,81.098c-0.413-0.414-0.825-0.828-1.238-1.242
		c3.823-7.028,4.219-13.891,0.769-21.465c-1.964-4.313-2.85-9.548-0.521-14.449c1.437-0.146,1.614,0.966,1.945,1.931
		c-0.467,16.198,7.08,28.221,19.618,37.647c1.055,0.794,2.21,1.507,2.612,2.896c-0.03,0.814-0.477,1.356-1.144,1.751
		c-6.344-1.5-10.287-6.26-14.447-10.708c-0.983-1.052-1.571-2.441-2.547-3.532C36.857,76.051,37.487,79.939,34.184,81.098z"/>
	<path fill-rule="evenodd" clip-rule="evenodd" fill="#1A2225" d="M8.923,104.591c0.11,0.583,0.221,1.166,0.332,1.749
		c1.008,2.185-0.009,4.241-0.48,6.296c-2.008,8.752-2.719,17.702-4.106,26.548c-0.503,3.207,0.658,5.854,3.547,7.634
		c1.221,0.752,2.843,1.159,3.075,2.962c-0.726,0.335-1.45,0.669-2.175,1.003c-6.026-2.306-8.688-5.181-7.955-10.421
		c1.494-10.673,2.3-21.502,5.787-31.816C7.415,107.164,8.255,105.907,8.923,104.591z"/>
	<path fill-rule="evenodd" clip-rule="evenodd" fill="#474948" d="M105.193,140.88c-1.713-1.104-3.712-0.854-5.592-1.123
		c-0.618-0.088-0.749,0.694-0.136,0.445c0.098-0.04,0.408,0.442,0.62,0.683c0.357,1.552-0.79,1.531-1.764,1.698
		c-1.7-0.211-3.39-0.518-5.104-0.635c-2.324-0.74-5.575,1.904-7.062-1.909c9.327-1.651,18.654-3.302,27.981-4.951
		c1.171,0.81,3.27-0.327,3.808,1.812C114.096,139.518,108.969,138.038,105.193,140.88z"/>
	<path fill-rule="evenodd" clip-rule="evenodd" fill="#434544" d="M93.515,120.945c2.115-7.34,6.704-13.503,9.703-20.418
		c0.529-1.22,2.227-2.401,0.75-3.92c-1.43-1.471-2.712,0.002-4.022,0.483c0.951-3.133,1.217-3.421,4.713-3.392
		c4.462,0.037,8.923,0.25,13.385,0.388c-1.146,1.217-2.715,0.597-4.062,0.938c-1.333,1.289-3.038,0.718-4.047,0.85
		c3.33,0.551,7.298,0.053,11.106,1.204c-3.137,1.625-6.5,0.404-9.736,0.774c-1.755,0.201-3.675-0.601-5.228,0.85
		c-4.395,7.203-7.164,15.296-12.158,22.171L93.515,120.945z"/>
	<path fill-rule="evenodd" clip-rule="evenodd" fill="#2E2E2F" d="M107.105,81.939c0.311,0.317,0.622,0.635,0.933,0.951
		c-5.402,7.525-13.193,10.661-21.982,11.96c-3.736,0.627-7.476,1.291-10.96-0.957c-0.015-0.267-0.03-0.532-0.045-0.799
		c1.299-1.719,3.237-1.556,5-1.485c9.179,0.374,17.349-1.929,23.98-8.619C104.834,82.178,105.789,81.433,107.105,81.939z"/>
	<path fill-rule="evenodd" clip-rule="evenodd" fill="#C3C2C2" d="M66.172,90.916c0.451,1.48,1.617,2.304,2.828,3.086
		c4.538,2,7.057,6.067,9.9,9.815c1.88-0.386,1.721-2.275,2.644-3.292c1.07-1.008,1.408-3.146,3.636-2.381
		c-0.007,0.346-0.015,0.691-0.022,1.037c0.304,0.312,0.468,0.686,0.496,1.121c-0.043,0.427-0.169,0.829-0.368,1.209
		c-0.696,1.073-1.348,2.172-1.864,3.352c-1.233,2.101-1.315,5.078-4.386,5.784c-1.575,0.098-2.581-0.739-2.928-2.154
		c-1.355-5.517-5.622-8.856-9.304-12.638c-1.169-1.437-2.901-2.52-2.984-4.653c0.243-0.425,0.6-0.698,1.084-0.796
		C65.388,90.42,65.812,90.59,66.172,90.916z"/>
	<path fill-rule="evenodd" clip-rule="evenodd" fill="#171819" d="M85.18,98.145c-1.016,1.009-2.033,2.018-3.049,3.027
		c-2.639-1.791-4.171-4.81-7.04-6.345c-0.004-0.311-0.003-0.622,0.003-0.932c3.631,0.572,7.45-1.004,10.96,0.956
		C85.763,95.948,85.472,97.047,85.18,98.145z"/>
	<path fill-rule="evenodd" clip-rule="evenodd" fill="#1F2121" d="M84.966,100.827c0.064-0.549,0.128-1.098,0.192-1.646
		c2.584-1.343,2.276,1.108,3.037,2.258c1.892,2.86,1.455,6.945,4.772,9.043c0.532,0.44,0.598,0.941,0.199,1.505
		c-0.396,0.93-0.792,1.861-1.188,2.791c-1.276,0.371-1.917-0.541-2.281-1.41C87.969,109.247,85.827,105.276,84.966,100.827z"/>
	<path fill-rule="evenodd" clip-rule="evenodd" fill="#303132" d="M34.227,46.031c-0.344-0.696-0.688-1.393-1.033-2.089
		c0.45-5.048,2.334-9.465,5.803-13.185c0.334,0.36,0.667,0.721,1.001,1.081C38.787,36.859,37.536,41.864,34.227,46.031z"/>
	<path fill-rule="evenodd" clip-rule="evenodd" fill="#40403D" d="M110.117,79.954c-0.36-0.356-0.72-0.714-1.081-1.071
		c-0.225-3.588,1.404-6.648,2.793-9.774c1.506-0.384,1.279,1.36,2.153,1.753C113.423,74.203,112.386,77.34,110.117,79.954z"/>
	<path fill-rule="evenodd" clip-rule="evenodd" fill="#868886" d="M114.22,151.017c-0.896-2.357-5.559-2.111-4.177-6.042
		c2.034,0.645,3.678,1.854,5.138,3.392C116.712,149.978,115.629,150.531,114.22,151.017z"/>
	<path fill-rule="evenodd" clip-rule="evenodd" fill="#646565" d="M119.293,132.979c1.791-3.297,2.52-7.241,5.852-9.598
		c-1.475,3.258-2.394,6.791-4.757,9.61C120.019,133.409,119.654,133.405,119.293,132.979z"/>
	<path fill-rule="evenodd" clip-rule="evenodd" fill="#4C4D4D" d="M93.166,111.988c-0.066-0.502-0.132-1.003-0.199-1.505
		c1.441-2.847,1.281-6.716,5.124-8.032C96.601,105.706,95.385,109.106,93.166,111.988z"/>
	<path fill-rule="evenodd" clip-rule="evenodd" fill="#424343" d="M119.293,132.979c0.365,0.004,0.729,0.008,1.095,0.012
		c-0.31,1.619-1.246,2.847-2.445,3.91c-1.27-0.604-2.539-1.209-3.808-1.812C115.844,134.357,118.037,134.813,119.293,132.979z"/>
	<path fill-rule="evenodd" clip-rule="evenodd" fill="#6A6A6A" d="M129.078,116.071c-0.603-2.931,1.204-4.998,2.583-7.217
		c0.417,0.015,0.836,0.028,1.255,0.043C131.787,111.368,130.886,113.963,129.078,116.071z"/>
	<path fill-rule="evenodd" clip-rule="evenodd" fill="#949693" d="M121.041,97.077c-5.054,0-10.108,0-15.162,0
		c0.022-0.685,0.044-1.37,0.066-2.054c2.679,0,5.358,0,8.037,0.001c5.018,1.702,10.208,0.454,15.303,0.872
		c1.955,0.16,3.933,0.026,5.894,1.181C130.466,97.077,125.754,97.077,121.041,97.077z"/>
	<path fill-rule="evenodd" clip-rule="evenodd" fill="#474948" d="M93.515,120.945l0.404-0.072
		c-2.925,6.326-5.851,12.652-8.777,18.979c0.514,0.917,0.586,1.785-0.287,2.545c-1.659,1.023-3.475,0.953-5.26,0.587
		c-6.36-1.301-12.79-0.329-19.176-0.671c-2.239-0.119-4.676,0.474-6.446-1.566c0.29-2.973,2.602-3.162,4.698-2.999
		c4.614,0.358,9.223-0.007,13.491,0.221c-3.782-0.586-8.056,0.942-12.09-0.943c-0.35-1.1,0.403-1.534,1.175-1.968
		c5.233-0.99,10.505-0.425,15.759-0.401c2.008,0.01,3.485,0.887,3.813,3.08c0.006,0.896-0.93,1.974,0.323,2.632
		c1.668,0.876,1.916-0.726,2.383-1.619c2.433-4.64,4.747-9.342,7.2-13.969C91.46,123.394,91.695,121.57,93.515,120.945z"/>
	<path fill-rule="evenodd" clip-rule="evenodd" fill="#757776" d="M85.092,141.959c0.017-0.703,0.033-1.406,0.049-2.108
		c0.337,0.062,0.675,0.125,1.013,0.188c2.064,2.215,4.719-0.183,6.93,0.886c-1.615,3.779-4.93,2.144-7.651,2.407
		C84.886,142.983,84.772,142.525,85.092,141.959z"/>
	<path fill-rule="evenodd" clip-rule="evenodd" fill="#5F5D5E" d="M34.227,46.031c1.26-5.001,2.658-9.946,5.771-14.193
		c1.288-1.709,2.577-3.418,4.837-4.573c3.928,10.509,11.826,17.439,20.968,23.034c3.696,2.262,5.286,4.485,3.192,8.662
		c-0.709,1.414-0.688,3.193-1.001,4.804c-2.064,7.919-1.065,15.617,1.536,23.244c0.492,1.443,2.208,3.063,0.824,4.476
		c-1.145,1.17-2.715-0.634-4.182-0.568c-0.283-0.037-0.567-0.064-0.852-0.081c-5.479-5.455-8.659-12.301-11.658-19.252
		c-1.062-4.504-2.353-8.979-1.991-13.688c0.051-0.673-0.909-0.061-0.26-0.214c0.116,4.654,0.897,9.202,2.17,13.676
		c1.827,5.068,4.254,9.809,7.416,14.188c0.712,0.988,1.653,2.069,1.17,3.532c-2.418,0.967-4.029,0.08-5.04-2.189
		c-10.949-7.596-19.443-16.945-22.399-30.477C33.965,52.918,34.346,49.49,34.227,46.031z"/>
	<path fill-rule="evenodd" clip-rule="evenodd" fill="#3399CC" d="M58.079,17.806c3.818-0.605,6.439,0.945,8.849,3.968
		c3.272,4.105,6.957,7.914,11.14,11.167c5.801,6.292,12.368,11.548,20.074,15.389c4.759,2.372,9.468,4.853,13.833,7.958
		c3.35,2.382,3.633,5.477,2.259,8.813c-1.369,3.324-4.341,2.605-6.894,1.866c-18.396-5.332-35.603-13.071-50.259-25.688
		c-4.708-4.053-8.478-8.859-10.303-15.029c-0.891-3.013-0.306-4.703,2.815-5.576C52.464,19.872,55.253,18.774,58.079,17.806z"/>
	<path fill-rule="evenodd" clip-rule="evenodd" fill="#5F5D5E" d="M79.141,31.882c-3.495-3.708-6.991-7.416-11.019-11.689
		c6.611-0.624,11.866,1.519,17.06,3.737c11.317,4.835,19.081,13.415,24.915,23.975c0.346,1.415,0.692,2.829,1.216,4.974
		C99.086,47.349,88.226,41.003,79.141,31.882z"/>
	<path fill-rule="evenodd" clip-rule="evenodd" fill="#FBF7DA" d="M101.773,75.048c-3.306,0.302-6.65,0.38-9.91,0.947
		c-8.644,1.504-15.442-2.22-22.096-7.023c-2.026-1.462-0.447-2.75-0.768-4.065c1.291-3.22,1.346-6.847,3.563-10.362
		c9.383,5.398,19.53,9.206,29.529,13.358c0.886,0.753,2.504,0.573,2.742,2.157c0.211,1.601-0.298,3.021-1.088,4.373
		C103.212,75.032,102.64,75.518,101.773,75.048z"/>
	<path fill-rule="evenodd" clip-rule="evenodd" fill="#3399CC" d="M33.736,15.427c4.983,3.144,9.622,2.381,15.34,2.845
		c-3.176,2.014-5.143,3.254-5.083,6.438c0.037,1.944-2.043,2.828-3.87,0.759C37.743,22.772,35.815,19.812,33.736,15.427z"/>
	<path fill-rule="evenodd" clip-rule="evenodd" fill="#F6F4DA" d="M104.158,70.078c-0.689-0.725-1.378-1.45-2.067-2.174
		c3.27,0.214,6.345,1.993,9.739,1.206c0.98,3.803-1.525,6.612-2.793,9.774c-2.421-1.278-4.842-2.557-7.263-3.835
		c0.446-0.394,0.892-0.788,1.338-1.181C104.938,73.012,106.729,72.147,104.158,70.078z"/>
	<path fill-rule="evenodd" clip-rule="evenodd" fill="#3399CC" d="M52.349,6.459c1.196,3.886,3.291,7.358,1.359,10.14
		c-1.886,2.718-4.686-0.628-7.671-0.459C48.206,12.812,50.049,9.987,52.349,6.459z"/>
	<path fill-rule="evenodd" clip-rule="evenodd" fill="#5F5D5E" d="M34.184,81.098c1.469-3.212,2.938-6.424,4.644-10.154
		c4.4,7.486,10.156,12.922,17.304,16.876c3.77,0.528,6.14,2.478,6.127,6.479c-0.011,3.482,1.887,6.043,3.991,8.369
		c4.155,4.592,7.601,9.681,11.068,14.774c0.176,0.474,0.238,0.963,0.201,1.466c-1.243,2.799-1.577,6.318-5.499,7.023
		c-11.038-2.927-21.412-7.721-32.913-12.181c1.14,3.029,3.25,3.48,4.833,3.866c4.851,1.18,4.194,3.239,1.771,6.481
		c-3.413,4.568-7.597,8.339-11.546,12.37c-2.935,2.996-4.545,2.642-5.228-1.519c-1.129-11.061-1.483-22.102,0.075-33.174
		C30.012,94.681,32.37,87.967,34.184,81.098z"/>
	<path fill-rule="evenodd" clip-rule="evenodd" fill="#3399CC" d="M11.291,149.781c-8.001-3.28-8.812-4.969-7.563-13.562
		c1.458-10.036,2.578-20.124,5.527-29.879c5.167-1.547,10.625-1.577,15.81-3.288c2.742-0.904,1.354,1.768,1.311,2.942
		c-0.382,10.446-1.406,20.919,1.562,31.195c0.633,2.5,0.11,4.282-2.418,5.65C20.869,145.357,16.415,148.242,11.291,149.781z"/>
	<path fill-rule="evenodd" clip-rule="evenodd" fill="#5F5D5E" d="M71.991,144.985c1.234,1.728,2.753,3.293,3.36,5.959
		c-1.818,0-3.462-0.23-5.014,0.048c-3.128,0.562-6.812,1.276-7.176,5.006c-0.351,3.591-2.286,3.26-4.365,2.69
		c-7.848-2.148-15.756-4.189-22.757-8.598c-3.64-3.336-2.951-5.514,1.228-8.146c6.641-4.184,12.012-10.006,16.965-16.053
		c1.94-2.369,3.53-3.002,6.234-1.793c3.149,1.408,6.407,2.574,9.618,3.845c0.114,3.527-3.261,3.655-5.152,5.179
		c-1.94,1.563-4.419,2.117-6.734,2.936c-2.317,0.267-4.653,0.062-6.98,0.169c-1.667,0.075-3.496-0.031-4.25,1.894
		c-0.916,2.337,1.708,2.454,2.529,3.721c1.629,2.544,0.06,5.887,2.098,8.323c3.713,3.373,5.779,3.312,9.054-0.13
		c1.983-2.085,2.854-5.278,6.072-6.159C68.621,143.576,70.485,143.441,71.991,144.985z"/>
	<path fill-rule="evenodd" clip-rule="evenodd" fill="#BEBDBE" d="M58.496,135c3.984-2.153,8.394-3.607,11.589-7.057
		c0.997-0.333,1.757-0.893,1.937-2.012c2.53-1.717,2.546-5.258,5.065-6.983c0.159,0.161,0.316,0.322,0.476,0.482
		c0.43,0.866,0.375,1.747,0.096,2.638c-0.809,1.831-1.671,3.635-2.927,5.22c-0.425,0.531-0.893,1.023-1.375,1.504
		c-2.79,2.83-6.202,4.693-9.78,6.295c-0.752,0.434-1.787,0.075-2.421,0.854c-0.267,0.271-0.533,0.54-0.799,0.81
		c-1.181,0.898-1.871,0.109-2.546-0.738C57.611,135.386,57.84,135.049,58.496,135z"/>
	<path fill-rule="evenodd" clip-rule="evenodd" fill="#3399CC" d="M25.479,147.924c2.713,0.311,3.937-2.361,6.029-0.786
		c0.733,0.553,0.706,1.383-0.106,2.019C29.571,150.589,27.887,150.344,25.479,147.924z"/>
	<path fill-rule="evenodd" clip-rule="evenodd" fill="#5E5C5D" d="M98.031,141.894c0.861,0.022,1.62-0.161,2.054-1.008
		c2.988-0.439,4.26,2.208,6.335,3.249c-4.491,7.585-11.154,8.582-18.864,7.036c-2.083-0.418-4.313-0.095-6.476-0.111
		c-3.576,0.131-4.449-2.885-5.979-5.136c0.225-2.73,2.462-2.093,4.05-2.282c1.932-0.229,3.901-0.136,5.854-0.15
		C89.394,143.35,93.487,140.782,98.031,141.894z"/>
	<path fill-rule="evenodd" clip-rule="evenodd" fill="#383A39" d="M85.109,143.947c-2.957,2.578-7.024-0.467-10.007,1.976
		c-1.05-0.267-1.283-3.244-3.11-0.938c-2.006-0.021-4.011-0.041-6.017-0.062c-0.529-0.895-0.456-1.708,0.329-2.423
		c5.59-1.415,11.189-0.121,16.785-0.042C84.133,142.451,84.648,143.162,85.109,143.947z"/>
	<path fill-rule="evenodd" clip-rule="evenodd" fill="#858785" d="M65.219,156.414c2.422-2.343,4.695-4.679,7.212-3.253
		c1.633,0.925-0.176,4.172-1.12,5.019C69.206,160.068,67.309,157.81,65.219,156.414z"/>
	<path fill-rule="evenodd" clip-rule="evenodd" fill="#3399CC" d="M31.558,82.422c-1.175,4.581-1.901,8.152-3.041,11.585
		c-0.745,2.243,0.178,5.541-2.713,6.533c-4.35,1.491-8.709,3.427-13.515,2.737c-2.071-0.297-2.609-1.835-2.438-3.692
		c0.321-3.467,1.547-6.449,4.688-8.333c1.993-1.196,3.946-2.472,6.011-3.527C23.926,86,27.378,84.425,31.558,82.422z"/>
	<path fill-rule="evenodd" clip-rule="evenodd" fill="#555455" d="M84.966,100.827c3.867,3.881,3.588,9.847,7.012,13.951
		c-0.992,2.544-1.909,5.127-3.77,7.218c-1.017-0.31-1.839-1.008-1.965-1.99c-0.718-5.63-2.05-11.191-2.01-16.906
		c0.005-0.821,0.42-1.566,0.841-2.272L84.966,100.827z"/>
	<path fill-rule="evenodd" clip-rule="evenodd" fill="#101111" d="M85.075,100.828c1.003,7.062,1.22,14.24,3.133,21.168
		c-0.782,1.622-1.564,3.244-2.347,4.866c-0.644,0.222-1.124,0.031-1.445-0.569c-0.849-7.453-1.667-14.911-1.411-22.437
		C83.269,102.555,83.77,101.416,85.075,100.828z"/>
	<path fill-rule="evenodd" clip-rule="evenodd" fill="#2A2A2A" d="M85.064,126.927c0.264-0.05,0.529-0.071,0.797-0.064
		c-1.681,3.625-3.362,7.25-5.043,10.875c-1.102-1.821-2.814-1.966-4.734-1.921c-4.975,0.115-9.953,0.093-14.929,0.125
		c0.11-1.156,1.122-0.884,1.802-1.136c3.317-1.243,6.771-1.496,10.258-1.279c3.906,0.243,7.272-0.29,8.816-4.627
		C82.465,127.68,83.407,126.586,85.064,126.927z"/>
	<path fill-rule="evenodd" clip-rule="evenodd" fill="#8B8D8B" d="M107.105,81.939c-8.592,9.732-19.745,12.109-32.056,11.156
		c-4.302-5.312-6.337-12.699-5.911-21.484c1.371-0.731,2.136,0.499,2.971,1.079c6.914,4.801,14.354,6.487,22.686,4.627
		c3.012-0.672,6.301-1.034,9.251,0.626C105.589,78.809,107.479,79.547,107.105,81.939z"/>
	<path fill-rule="evenodd" clip-rule="evenodd" fill="#5D5B5C" d="M75.092,94.827c4.478-0.25,5.558,3.27,7.04,6.345
		c-0.873,1.885-1.745,3.771-3.046,6.582c-2.047-6.256-6.883-9.344-10.085-13.751C71.031,94.277,73.062,94.552,75.092,94.827z"/>
	<path fill-rule="evenodd" clip-rule="evenodd" fill="#090A0A" d="M77.088,117.963c-5.083-6.248-10.211-12.461-15.195-18.789
		c-0.629-0.799-0.787-2.227-0.67-3.311c0.44-4.103-1.52-6.55-5.091-8.043c0.333-0.312,0.665-0.622,0.997-0.933
		c1.657,0.672,3.313,1.344,4.97,2.016c1.677-0.363,2.159,0.581,2.199,2.009c0.938,1.33,1.875,2.659,2.813,3.988
		c-1.095,5.252,2.2,8.621,5.198,12.118c2.047,2.389,3.526,5.217,5.781,7.442C78.307,115.782,79.109,117.277,77.088,117.963z"/>
	<path fill-rule="evenodd" clip-rule="evenodd" fill="#292B2B" d="M85.109,143.947c-0.33-0.282-0.661-0.563-0.991-0.846
		c0.173-0.518,0.477-0.64,0.93-0.307c2.629-0.834,5.588-0.253,8.036-1.87c1.678,0.178,3.558-0.677,4.947,0.97
		C93.724,142.579,89.416,143.262,85.109,143.947z"/>
	<path fill-rule="evenodd" clip-rule="evenodd" fill="#605E5F" d="M77.088,117.963c1.191-0.583-0.734-2.172,0.849-2.63
		c-1.056-2.029-0.421-3.675,1.153-5.109c2.531-1.369,2.051-4.589,3.916-6.368c2.391,7.539,2.21,15.306,2.059,23.071
		c-3.595,10.523-12.372,7.983-20.137,7.984c-0.657,0-1.314-0.068-1.97-0.105c3.154-2.564,7.237-3.812,9.946-7.007
		c6.159-0.797,6.792-2.075,4.395-8.87l-0.212,0.02C77.086,118.62,77.087,118.291,77.088,117.963z"/>
	<path fill-rule="evenodd" clip-rule="evenodd" fill="#605E5F" d="M79.09,110.224c-0.384,1.702-0.768,3.403-1.153,5.107
		c-5.004-3.955-7.791-9.766-11.958-14.44c-1.529-1.716,0.349-4.037,1.13-5.99c4.288,4.158,9.312,7.761,10.498,14.238
		C77.687,109.576,78.577,109.865,79.09,110.224z"/>
	<path fill-rule="evenodd" clip-rule="evenodd" fill="#C5C3C4" d="M64.296,90.913c-0.732-0.67-1.465-1.339-2.199-2.009
		c-3.177-5.537-7.218-10.629-8.785-17c0.279-0.465,0.569-0.472,0.87-0.021c3.168,6.637,7.038,12.861,11.136,18.953
		C64.979,90.86,64.638,90.886,64.296,90.913z"/>
	<path fill-rule="evenodd" clip-rule="evenodd" fill="#DCDDDD" d="M58.094,135.935c0.754,0.272,1.508,0.545,2.263,0.816
		c5.115-0.023,10.23-0.105,15.344-0.026c1.107,0.018,3.062-0.813,3.158,1.072c0.093,1.82-1.81,1.519-3.059,1.526
		c-6.105,0.036-12.211-0.018-18.316,0.044c-1.114,0.011-2.224,0.407-3.335,0.626c-0.641,0.693-1.462,1.007-2.373,1.136
		c-2.218-0.212-5.634,0.39-5.584-2.569c0.058-3.389,3.622-2.51,5.956-2.587C54.125,135.906,56.112,135.718,58.094,135.935z"/>
	<path fill-rule="evenodd" clip-rule="evenodd" fill="#8C8E8C" d="M51.917,140.186c0.744-0.064,1.488-0.129,2.233-0.193
		c1.614,1.842,3.756,0.896,5.625,0.912c8.453,0.077,16.911-0.12,25.316,1.055c-0.005,0.279-0.02,0.558-0.043,0.836
		c-0.308,0.107-0.618,0.209-0.93,0.306c-6.038-0.055-12.077-0.109-18.115-0.164c-0.527,1.071-1.412,1.501-2.572,1.45
		c-3.803-0.729-8.047,1.151-11.463-1.916C51.512,141.719,51.453,140.957,51.917,140.186z"/>
	<path fill-rule="evenodd" clip-rule="evenodd" fill="#C9C8C8" d="M54.183,71.882c-0.29,0.009-0.58,0.016-0.87,0.021
		c-2.507-6.074-2.702-12.331-1.198-18.749C51.654,59.55,52.821,65.728,54.183,71.882z"/>
	<path fill-rule="evenodd" clip-rule="evenodd" fill="#282823" d="M94.401,72.903c-1.497-0.417-2.206-1.511-2.075-2.901
		c0.14-1.493,0.808-3.037,2.574-2.994c1.547,0.037,2.114,1.423,2.029,2.826C96.835,71.389,96.146,72.623,94.401,72.903z"/>
	<path fill-rule="evenodd" clip-rule="evenodd" fill="#272723" d="M104.158,70.078c1.039-0.227,2.294-1.271,2.883,0.515
		c0.372,1.128,0.229,2.254-0.625,3.27c-1.159,1.377-2.202,1.203-3.304,0.004C103.46,72.604,103.809,71.341,104.158,70.078z"/>
	<path fill-rule="evenodd" clip-rule="evenodd" fill="#424343" d="M51.917,140.186c0.027,0.596,0.055,1.191,0.083,1.788
		c-0.256,0.303-0.579,0.501-0.958,0.612c-0.6,0.081-1.158-0.005-1.627-0.425c-2.265-0.16-4.6-0.513-4.283-3.504
		c0.29-2.737,2.308-3.8,4.947-3.763c2.805,0.039,5.61,0.071,8.417,0.107c-0.133,0.311-0.267,0.622-0.4,0.934
		c-2.358,1.202-4.897,0.576-7.36,0.728c-1.594,0.098-3.895-0.355-3.898,1.9c-0.003,2.186,2.271,1.181,3.599,1.426
		C50.924,140.079,51.422,140.121,51.917,140.186z"/>
	<path fill-rule="evenodd" clip-rule="evenodd" fill="#C7C6C7" d="M64.218,144.001c0.596-0.354,1.191-0.709,1.786-1.064
		c-0.01,0.663-0.019,1.325-0.029,1.987c-1.772,2.31-3.337,4.824-5.362,6.886c-3.452,3.516-6.242,3.223-9.825-0.596
		c0.137-0.185,0.273-0.368,0.409-0.554c6.519,2.509,9.159-2.512,12.39-6.386C63.796,144.182,64.007,144.091,64.218,144.001z"/>
	<path fill-rule="evenodd" clip-rule="evenodd" fill="#CBCACA" d="M49.414,142.161c0.533-0.072,1.067-0.145,1.6-0.216
		c0.574,0.499,0.842,1.139,0.877,1.888c-0.627,2.249,0.129,4.597-0.477,6.85c-0.218,0.165-0.427,0.342-0.626,0.53
		C47.684,148.598,49.257,145.271,49.414,142.161z"/>
	<path fill-rule="evenodd" clip-rule="evenodd" fill="#151516" d="M77.298,118.929c2.974,1.918,3.512,4.702,1.897,7.523
		c-1.367,2.388-3.685,3.278-6.292,1.347c0.308-0.385,0.615-0.77,0.922-1.153c2.67-0.484,3.341-2.338,3.236-4.723
		C77.141,120.924,77.219,119.927,77.298,118.929z"/>
	<path fill-rule="evenodd" clip-rule="evenodd" fill="#525051" d="M77.062,121.923c2.071,3.733,0.526,4.987-3.236,4.723
		C74.904,125.071,75.983,123.497,77.062,121.923z"/>
	<path fill-rule="evenodd" clip-rule="evenodd" fill="#252727" d="M51.243,143.862c-0.076-0.64-0.152-1.279-0.229-1.917
		c0.327,0.061,0.656,0.069,0.986,0.027c3.851,2.015,8.47-0.603,12.218,2.029l-0.108-0.049
		C59.805,146.147,55.515,146.294,51.243,143.862z"/>
	<path fill-rule="evenodd" clip-rule="evenodd" fill="#605E5F" d="M51.243,143.862c4.289,0.03,8.578,0.061,12.866,0.09
		c-0.398,2.203-1.839,3.833-3.142,5.501c-2.744,3.511-5.867,4.733-9.555,1.23C50.48,148.431,49,146.193,51.243,143.862z"/>
	<path fill="#151516" d="M80.153,123.064l-0.083-0.25c-0.006-1.665-0.523-3.128-0.916-4.759c-0.18-0.747-0.313-1.601-0.755-2.248
		c-0.436-0.638-0.767-0.639-1.566-0.648c-0.096,1.781-0.198,3.618,0.159,5.32c0.165,0.789,0.137,1.667,0.745,2.103l0.233,0.15
		c0.096-0.135,0.101-0.377,0.101-0.835c0,0.458-0.005,0.7-0.101,0.835C78.621,123.118,79.547,123.379,80.153,123.064z"/>
	<path fill="#C3C2C2" d="M77.438,108.62c0.339,0.981-0.06,2.375-0.254,3.333c-0.222,1.092-0.178,2.296-0.333,3.417
		c-0.153,1.108-0.115,2.206-0.412,3.25c-0.291,1.022-0.331,2.048,0.181,3.069c0.903,0.193,1.45-2.163,1.712-2.814
		c0.557-1.381,0.874-2.575,0.939-4.087c0.068-1.579,0.969-6.042-1.667-5.917"/>
	<path fill="#525051" d="M78.069,124.564c0.434-0.681,0.799-3.912-0.319-4.069c-0.889,1.163-0.926,3.547,0.486,4.235"/>
	<ellipse fill="#C3C2C2" cx="52.236" cy="53.106" rx="1.5" ry="1.542"/>
	<path fill="#C3C2C2" d="M85.028,100.772c0.661-0.05,1.304-0.8,1.676-1.292c0.458-0.605,0.721-1.319,1.147-1.958
		c0.417-0.625,0.924-1.221,1.374-1.833c0.375-0.511,0.534-1.052,0.872-1.577c-0.587,0.225-1.169,0.296-1.819,0.369
		c-0.649,0.072-0.753,0.621-1.074,1.093c-0.641,0.941-1.264,1.938-2.061,2.772c-0.276,0.289-0.238,0.247-0.279,0.679
		c-0.023,0.243-0.076,0.479-0.085,0.75c-0.008,0.215-0.057,1.736,0.5,1.04"/>
	<path fill="#C3C2C2" d="M66.194,90.856c-0.269,0.082-0.688-0.535-0.905-0.719c-0.341-0.29-0.847-0.762-1.263-0.874
		c-0.233,0.605,0.146,0.937,0.542,1.343c0.487,0.5,0.903,0.417,1.543,0.292"/>
	<path fill="#6A6A6A" d="M122.777,125.939c0.212-0.026,1.175-1.698,1.379-2.083c0.509-0.961,0.936-2.023,1.377-3.024
		c0.455-1.032,0.874-2.046,1.347-3.071c0.423-0.92,0.969-1.854,1.488-2.733c0.209-0.355,0.409-0.696,0.585-1.069
		c0.1-0.212,0.213-0.687,0.398-0.763c0.301,0.424,0.137,1.755,0.042,2.277c-0.107,0.586-0.53,1.061-0.917,1.499
		c-0.762,0.861-1.293,1.809-1.75,2.885c-0.775,1.826-1.269,4.151-3.282,5"/>
</g>
<path fill-rule="evenodd" clip-rule="evenodd" fill="#434544" d="M95.371,104.583c0.321-0.894,0.923-1.788,1.266-2.687
	c0.456-1.197,0.521-2.084,1.405-3.148c0.629-0.757,1.068-1.705,1.567-2.517c0.533-0.869,0.901-1.134,1.814-1.575
	c-0.345,0.51-0.278,0.989-0.464,1.514c-0.145,0.406-0.483,0.766-0.691,1.141c-0.405,0.727-0.734,1.604-1.107,2.29
	c-0.951,1.747-1.283,4.537-3.525,5.054c-0.017-0.177-0.042-0.393-0.015-0.573"/>
</svg>
