<?xml version="1.0" encoding="utf-8"?>
<!-- Generator: Adobe Illustrator 16.0.0, SVG Export Plug-In . SVG Version: 6.00 Build 0)  -->
<!DOCTYPE svg PUBLIC "-//W3C//DTD SVG 1.1//EN" "http://www.w3.org/Graphics/SVG/1.1/DTD/svg11.dtd">
<svg version="1.1" id="Capa_1" xmlns="http://www.w3.org/2000/svg" xmlns:xlink="http://www.w3.org/1999/xlink" x="0px" y="0px"
	 width="516.817px" height="471.836px" viewBox="-182 -204.592 516.817 471.836"
	 enable-background="new -182 -204.592 516.817 471.836" xml:space="preserve">
<g>
	<path d="M300.579-19.036h-46.087v-137.5c0-26.031-21.331-47.342-47.341-47.342h-341.809c-26.032,0-47.342,21.311-47.342,47.342
		V43.292c0,26.096,21.31,47.363,47.342,47.363h43.681v137.629c0,21.484,17.542,38.961,38.939,38.961h86.628
		c21.418,0,38.96-17.5,38.96-38.961V90.634h31.315v68.912c0,18.797,15.398,34.217,34.239,34.217h161.474
		c18.841,0,34.238-15.375,34.238-34.217V15.159C334.818-3.673,319.399-19.036,300.579-19.036z M290.551-0.249
		c5.87,0,10.612,4.723,10.612,10.58c0,5.824-4.742,10.568-10.612,10.568c-5.847,0-10.568-4.723-10.568-10.568
		C279.983,4.493,284.704-0.249,290.551-0.249z M308.896,164.397H130.811V36.892h178.085V164.397z M260.233-0.228
		c5.868,0,10.59,4.721,10.59,10.559c0,5.824-4.722,10.545-10.59,10.545c-5.826,0-10.547-4.721-10.547-10.545
		C249.686,4.493,254.406-0.228,260.233-0.228z M196.519-179.729c7.666,0,13.838,6.193,13.838,13.838
		c0,7.656-6.172,13.838-13.838,13.838c-7.624,0-13.84-6.182-13.84-13.838C182.679-173.536,188.895-179.729,196.519-179.729z
		 M156.865-179.708c7.644,0,13.794,6.193,13.794,13.816c0,7.635-6.15,13.816-13.794,13.816c-7.646,0-13.797-6.182-13.797-13.816
		C143.069-173.515,149.241-179.708,156.865-179.708z M-9.266,16.935c0-5.836,4.722-10.557,10.548-10.557s10.59,4.721,10.59,10.557
		c0,5.826-4.764,10.559-10.59,10.559S-9.266,22.761-9.266,16.935z M20.99,16.935c0-5.857,4.764-10.578,10.611-10.578
		c5.847,0,10.568,4.721,10.568,10.578c0,5.826-4.722,10.58-10.568,10.58C25.754,27.515,20.99,22.761,20.99,16.935z M44.075,233.829
		H-61.437V47.147H44.098L44.075,233.829L44.075,233.829z M73.551,50.028V24.786c0-21.396-17.542-38.939-38.939-38.939h-86.648
		c-21.397,0-38.939,17.543-38.939,38.939v25.242h-55.16v-178.703h364.722v109.639h-79.48c-18.841,0-34.239,15.363-34.239,34.195
		v34.869H73.551z"/>
</g>
</svg>
