<?xml version="1.0" encoding="utf-8"?>
<!-- Generator: Adobe Illustrator 16.0.0, SVG Export Plug-In . SVG Version: 6.00 Build 0)  -->
<!DOCTYPE svg PUBLIC "-//W3C//DTD SVG 1.1//EN" "http://www.w3.org/Graphics/SVG/1.1/DTD/svg11.dtd">
<svg version="1.1" id="Layer_1" xmlns="http://www.w3.org/2000/svg" xmlns:xlink="http://www.w3.org/1999/xlink" x="0px" y="0px"
	 width="121.066px" height="60.066px" viewBox="0 0 121.066 60.066" enable-background="new 0 0 121.066 60.066"
	 xml:space="preserve">
<g>
	<path fill="#3399CC" d="M61,60c0-20,0-40,0-60c19,0,38,0.055,57-0.066c2.502-0.016,3.084,0.564,3.066,3.066
		c-0.124,18-0.124,36,0,54c0.019,2.502-0.564,3.082-3.066,3.065C99,59.945,80,60,61,60z"/>
</g>
<polyline fill="#3396C7" points="119.233,0 121.067,0 120.99,1.707 "/>
<polyline fill="#3396C7" points="121.067,58.417 121.067,60.067 119.176,60.007 "/>
<g id="Forma_1">
	<g>
		<path fill="#3399CC" d="M39.219,26.093c0-6.54-5.303-11.842-11.843-11.842s-11.842,5.302-11.842,11.842
			s5.302,11.843,11.842,11.843S39.219,32.633,39.219,26.093z M27.376,34.975c-4.897,0-8.882-3.983-8.882-8.882
			s3.983-8.882,8.882-8.882c4.897,0,8.882,3.983,8.882,8.882S32.274,34.975,27.376,34.975z M46.247,40.776l-7.246-7.244
			c-1.079,1.679-2.507,3.106-4.187,4.187l7.245,7.245c0.402,0.402,0.893,0.664,1.407,0.787h1.374
			c0.516-0.123,1.004-0.384,1.406-0.787c0.401-0.401,0.664-0.891,0.787-1.406v-1.374C46.911,41.668,46.649,41.179,46.247,40.776z"/>
	</g>
</g>
<g id="Forma_1_1_">
	<g>
		<path fill="#FFFFFF" d="M99.895,26.093c0-6.54-5.303-11.842-11.843-11.842S76.21,19.553,76.21,26.093s5.302,11.843,11.842,11.843
			S99.895,32.633,99.895,26.093z M88.052,34.975c-4.897,0-8.882-3.983-8.882-8.882s3.983-8.882,8.882-8.882s8.882,3.983,8.882,8.882
			S92.95,34.975,88.052,34.975z M106.922,40.776l-7.246-7.244c-1.079,1.679-2.507,3.106-4.186,4.187l7.244,7.245
			c0.402,0.402,0.893,0.664,1.407,0.787h1.374c0.517-0.123,1.004-0.384,1.406-0.787c0.402-0.401,0.664-0.891,0.787-1.406v-1.374
			C107.586,41.668,107.324,41.179,106.922,40.776z"/>
	</g>
</g>
</svg>
