<?xml version="1.0" encoding="utf-8"?>
<!-- Generator: Adobe Illustrator 16.0.0, SVG Export Plug-In . SVG Version: 6.00 Build 0)  -->
<!DOCTYPE svg PUBLIC "-//W3C//DTD SVG 1.1//EN" "http://www.w3.org/Graphics/SVG/1.1/DTD/svg11.dtd">
<svg version="1.1" id="sportsSVG" xmlns:sketch="http://www.bohemiancoding.com/sketch/ns"
	 xmlns="http://www.w3.org/2000/svg" xmlns:xlink="http://www.w3.org/1999/xlink" x="0px" y="0px" width="503.233px"
	 height="503.492px" viewBox="0 0 503.233 503.492" enable-background="new 0 0 503.233 503.492" xml:space="preserve">
<title>icon 11 baseball set</title>
<desc>Created with Sketch.</desc>
<g>
	<path fill="#6633CC" id="sportsSVG" d="M398.757,492.018c0,3.826,0,5.738,0,9.562c40.163-3.824,70.763-36.338,74.588-74.588
		c-3.825,0-5.737,0-9.562,0C429.357,425.08,398.757,455.68,398.757,492.018z"/>
	<polygon fill="#6633CC" id="sportsSVG" points="52.595,407.867 96.582,449.943 257.232,310.331 194.12,247.218 	"/>
	<path fill="#6633CC" id="sportsSVG" d="M39.207,419.344c-9.562-3.826-21.038-1.914-30.6,7.648c-11.475,11.477-11.475,28.688,0,40.164
		l26.775,26.773c11.475,11.477,28.688,11.477,40.163,0c7.65-7.648,9.562-19.125,7.65-30.6L39.207,419.344z"/>
	<path fill="#6633CC" id="sportsSVG" d="M398.757,331.368c0,3.825,0,5.737,0,9.562c0,47.812-38.25,86.062-86.062,86.062c-3.825,0-5.737,0-9.562,0
		c3.825,40.164,36.338,72.676,76.5,76.5c0-3.824,0-5.736,0-9.562c0-47.812,38.25-86.062,86.062-86.062c3.825,0,5.737,0,9.562,0
		C471.432,367.706,438.92,335.193,398.757,331.368z"/>
	<path fill="#6633CC" id="sportsSVG" d="M379.632,339.018c0-3.825,0-5.737,0-9.562c-40.162,3.825-70.763,36.337-74.587,74.587
		c3.824,0,5.737,0,9.562,0C349.032,405.955,379.632,377.268,379.632,339.018z"/>
	<path fill="#6633CC" id="sportsSVG" d="M484.819,23.456l-5.737-5.738C454.22-7.145,415.97-5.232,393.02,19.63L205.595,231.918l65.024,65.025
		l212.288-187.425C509.682,86.568,509.682,48.318,484.819,23.456z"/>
</g>
</svg>
