<?xml version="1.0" encoding="utf-8"?>
<!-- Generator: Adobe Illustrator 16.0.0, SVG Export Plug-In . SVG Version: 6.00 Build 0)  -->
<!DOCTYPE svg PUBLIC "-//W3C//DTD SVG 1.1//EN" "http://www.w3.org/Graphics/SVG/1.1/DTD/svg11.dtd">
<svg version="1.1" id="techSVG" xmlns="http://www.w3.org/2000/svg" xmlns:xlink="http://www.w3.org/1999/xlink" x="0px" y="0px"
	 width="306.006px" height="540.379px" viewBox="-198 -463.779 306.006 540.379"
	 enable-background="new -198 -463.779 306.006 540.379" xml:space="preserve">
<path fill="#006699" id="techSVG" d="M68.7-463.779h-227.373c-21.759,0-39.327,17.634-39.327,39.365V37.274c0,21.711,17.567,39.326,39.327,39.326
	H68.7c21.711,0,39.307-17.615,39.307-39.326v-461.688C108.006-446.145,90.411-463.779,68.7-463.779z M-101.097-439.875H11.162
	c2.827,0,5.115,4.231,5.115,9.461c0,5.25-2.288,9.5-5.115,9.5h-112.259c-2.855,0-5.115-4.25-5.115-9.5
	C-106.212-435.644-103.953-439.875-101.097-439.875z M-44.973,37.754c-13.846,0-25.105-11.27-25.105-25.135
	c0-13.846,11.259-25.076,25.105-25.076c13.809,0,25.058,11.23,25.058,25.076C-19.916,26.485-31.165,37.754-44.973,37.754z
	 M78.545-48.283h-247.064v-349.074H78.545V-48.283z"/>
</svg>
