<?xml version="1.0" encoding="utf-8"?>
<!-- Generator: Adobe Illustrator 16.0.0, SVG Export Plug-In . SVG Version: 6.00 Build 0)  -->
<!DOCTYPE svg PUBLIC "-//W3C//DTD SVG 1.1//EN" "http://www.w3.org/Graphics/SVG/1.1/DTD/svg11.dtd">
<svg version="1.1" id="Layer_1" xmlns="http://www.w3.org/2000/svg" xmlns:xlink="http://www.w3.org/1999/xlink" x="0px" y="0px"
	 width="612px" height="340.5px" viewBox="0 0 612 340.5" enable-background="new 0 0 612 340.5" xml:space="preserve">
<path fill="#333333" id="travelSVG" d="M612,60.094c0,105.87-510.373,222.727-549.019,222.727c-21.667,0-46.25-4.994-46.25-24.97
	c0-6.673,7.703-16.319,21.22-27.948l-0.015,0.007L2.109,166.254c-4.851-8.618-1.005-19.536,8.175-23.212l6.157-2.465
	c11.159-4.468,23.718-3.802,34.341,1.821l65.039,34.432c25.323-15.02,54.049-30.746,84.326-44.23L73.402,50.373
	c-10.027-8.506-9.92-23.22,0.201-29.578l10.368-6.514C101.227,3.44,122.205,0.238,141.91,5.435l210.849,55.616
	c65.742-26.094,125.181-43.904,160.363-43.904c9.396,0,18.806,0.249,27.887,0.898L477.334,46.79l-1.524,21.418l98.29-45.183
	C597.66,28.644,612,39.13,612,60.094z M355.491,242.847l78.648,89.345c4.793,5.444,12.599,7.083,19.176,4.026l10.533-4.896
	c19.208-8.927,30.521-29.171,28.061-50.209l-9.846-84.185c-0.61-5.209-5.896-8.507-10.843-6.765l-112.308,39.563
	C353.446,231.652,351.66,238.496,355.491,242.847z"/>
</svg>
