<?xml version="1.0" encoding="utf-8"?>
<!-- Generator: Adobe Illustrator 16.0.0, SVG Export Plug-In . SVG Version: 6.00 Build 0)  -->
<!DOCTYPE svg PUBLIC "-//W3C//DTD SVG 1.1//EN" "http://www.w3.org/Graphics/SVG/1.1/DTD/svg11.dtd">
<svg version="1.1" id="vintageSVG" xmlns="http://www.w3.org/2000/svg" xmlns:xlink="http://www.w3.org/1999/xlink" x="0px" y="0px"
	 width="494.479px" height="659.878px" viewBox="-303.606 -436.49 494.479 659.878"
	 enable-background="new -303.606 -436.49 494.479 659.878" xml:space="preserve">
<path fill="#FF6600" id="vintageSVG" d="M167.022,50.683c1.978-1.433,4.581-1.595,6.74-0.464c2.159,1.109,3.49,3.349,3.45,5.791l-0.787,54.4
	l-93.616,67.193l-194.558-55.591v-50.95c0-3.673,1.725-7.144,4.661-9.363c2.946-2.199,6.739-2.926,10.281-1.896l171.191,48.892
	c5.327,1.514,11.037,0.545,15.537-2.703L167.022,50.683z M190.853,137.448c0-4.035-2.26-7.728-5.832-9.564
	c-3.602-1.836-7.92-1.513-11.198,0.827l-91.004,65.418l-196.132-57.407c-4.298-1.271-8.929-0.423-12.521,2.261
	c-3.582,2.684-5.69,6.9-5.69,11.38v11.522l214.353,61.503l107.843-76.334l0.201-2.382v-7.224H190.853z M114.822-18.367
	c11.118,3.45,21.025,9.604,29.833,17.373c1.463-20.359,3.824-52.685,5.438-70.401c2.663-29.117-11.805-46.753-21.006-54.905
	c-0.505,3.39-1.271,6.921-2.583,10.593c-3.168,8.919-7.103,15.598-11.421,20.683c2.805,4.964,4.964,11.704,4.137,20.824
	C117.949-60.257,116.213-37.435,114.822-18.367z M68.472-95.488c17.535,1.332,33.778,1.695,43.424-25.445
	c11.138-31.316-23.084-46.167-23.084-46.167c-28.875-10.614-48.852-31.478-59.375-44.856c-1.946,18.301-5.014,36.825-9.483,55.349
	c-5.499,22.821-12.742,44.453-21.298,64.792C22.042-97.829,53.863-96.578,68.472-95.488z M-69.94,9.095
	c2.169-23.851,52.654-38.782,112.756-33.334c60.101,5.448,107.075,29.198,104.916,53.068C145.553,52.7,95.087,67.613,34.976,62.164
	C-25.114,56.716-72.109,32.966-69.94,9.095z M13.507,16.683c-0.505,5.568,10.451,11.077,24.476,12.349
	c14.044,1.271,25.808-2.199,26.312-7.769c0.504-5.569-10.452-11.098-24.477-12.369C25.775,7.622,14.011,11.114,13.507,16.683z
	 M38.77,20.496c2.078,0.201,3.813-0.323,3.895-1.15c0.08-0.827-1.554-1.635-3.632-1.836c-2.099-0.202-3.834,0.322-3.895,1.149
	C35.057,19.488,36.692,20.294,38.77,20.496z M168.132,29.374c1.514-1.19,2.159-3.168,1.614-5.024s-2.149-3.188-4.076-3.35
	l-8.575-0.827c0.786,3.107,1.23,6.275,0.928,9.604c-0.303,3.35-1.181,6.538-2.583,9.564L168.132,29.374z M-94.588,26.428
	c-3.258,2.462-4.833,6.578-4.106,10.574c0.736,3.995,3.672,7.264,7.587,8.394L61.975,90.574c12.752,3.773,26.534,1.131,37.007-7.062
	l25.303-19.815c-16.707,6.336-38.853,9.907-64.872,9.907c-8.313,0-16.85-0.403-25.364-1.17
	C-19.667,67.552-74.984,46.162-79.918,15.27L-94.588,26.428z M-5.148-162.641c31.689-131.441-6.951-253.519-86.312-272.647
	c-1.332-0.323-2.674-0.626-4.005-0.868c-6.185-1.191-12.541,0.847-16.869,5.408c-4.318,4.58-5.993,11.058-4.459,17.151
	c9.353,37.007,31.438,97.279,80.481,131.844c4.65,3.289,5.791,9.726,2.482,14.407c-1.998,2.845-5.206,4.378-8.455,4.378
	c-2.048,0-4.117-0.605-5.922-1.876c-53.089-37.431-77.232-99.539-87.765-139.754c-1.987-7.567-7.425-13.762-14.669-16.708
	c-7.254-2.946-15.477-2.321-22.186,1.715c-16.243,9.767-31.942,23.225-46.511,39.771c-7.89,8.918-8.283,22.155-0.979,31.579
	c21.792,28.148,59.889,66.548,116.176,86.504c5.377,1.917,8.192,7.809,6.275,13.197c-1.493,4.217-5.488,6.88-9.726,6.88
	c-1.15,0-2.321-0.202-3.451-0.605c-53.169-18.847-90.933-52.08-115.318-80.39c-4.51-5.226-11.32-7.87-18.17-7.062
	c-6.84,0.807-12.854,4.944-16.021,11.078c-13.388,25.929-24.375,55.126-31.992,86.686c-2.059,8.555,2.633,17.232,10.896,20.198
	c24.143,8.656,70.815,20.339,144.95,19.169c6.043-0.081,10.402,4.459,10.493,10.15c0.101,5.69-4.459,10.392-10.16,10.513
	c-3.672,0.041-7.294,0.081-10.826,0.081c-62.128,0-104.755-8.737-131.218-16.97c-5.327-1.675-11.108-0.827-15.739,2.3
	c-4.641,3.107-7.597,8.152-8.081,13.681c-3.087,35.715-0.908,69.534,5.852,99.357c1.292,5.73,5.216,10.472,10.573,12.793
	c5.347,2.341,11.501,1.997,16.566-0.929c26.353-15.214,66.144-32.547,122.3-43.666c5.63-1.11,11.038,2.542,12.137,8.132
	c1.11,5.61-2.532,11.038-8.132,12.167c-56.196,11.098-95.009,28.854-119.485,43.504c-5.529,3.289-9.474,8.718-10.937,14.973
	c-1.463,6.255-0.323,12.854,3.158,18.302c10.472,16.223,23.205,29.218,37.915,38.076c5.398,3.248,11.875,4.217,18.02,2.704
	c6.124-1.514,11.38-5.429,14.629-10.856c13.65-22.842,36.573-49.779,74.76-71.572c4.974-2.805,11.27-1.069,14.094,3.854
	c2.835,4.964,1.11,11.26-3.854,14.104c-28.744,16.385-47.842,36.038-60.454,53.896c-2.875,4.057-2.936,9.443-0.182,13.58
	c2.764,4.116,7.769,6.135,12.631,5.005C-96.283,25.601-31.127-54.93-5.148-162.641z"/>
</svg>
